{
    "asset" : {
        "generator" : "Khronos glTF Blender I/O v1.2.75",
        "version" : "2.0"
    },
    "scene" : 0,
    "scenes" : [
        {
            "name" : "Scene",
            "nodes" : [
                0,
                1,
                2,
                3,
                7
            ]
        }
    ],
    "nodes" : [
        {
            "mesh" : 0,
            "name" : "Cylinder"
        },
        {
            "mesh" : 1,
            "name" : "Cylinder.001"
        },
        {
            "mesh" : 2,
            "name" : "Cylinder.002"
        },
        {
            "mesh" : 3,
            "name" : "Cylinder.003"
        },
        {
            "name" : "Bone",
            "translation" : [
                1.242536187171936,
                0.01956503465771675,
                -0.4564661979675293
            ]
        },
        {
            "name" : "Bone.001",
            "translation" : [
                2.183964729309082,
                0.6440349817276001,
                -1.091795802116394
            ]
        },
        {
            "name" : "Bone.002",
            "translation" : [
                2.242327928543091,
                1.2302234172821045,
                -1.3911417722702026
            ]
        },
        {
            "children" : [
                4,
                5,
                6
            ],
            "name" : "Armature"
        }
    ],
    "animations" : [
        {
            "channels" : [
                {
                    "sampler" : 0,
                    "target" : {
                        "node" : 1,
                        "path" : "scale"
                    }
                }
            ],
            "name" : "Cylinder.001Action",
            "samplers" : [
                {
                    "input" : 16,
                    "interpolation" : "LINEAR",
                    "output" : 17
                }
            ]
        },
        {
            "channels" : [
                {
                    "sampler" : 0,
                    "target" : {
                        "node" : 4,
                        "path" : "translation"
                    }
                },
                {
                    "sampler" : 1,
                    "target" : {
                        "node" : 4,
                        "path" : "rotation"
                    }
                },
                {
                    "sampler" : 2,
                    "target" : {
                        "node" : 4,
                        "path" : "scale"
                    }
                },
                {
                    "sampler" : 3,
                    "target" : {
                        "node" : 5,
                        "path" : "translation"
                    }
                },
                {
                    "sampler" : 4,
                    "target" : {
                        "node" : 5,
                        "path" : "rotation"
                    }
                },
                {
                    "sampler" : 5,
                    "target" : {
                        "node" : 5,
                        "path" : "scale"
                    }
                },
                {
                    "sampler" : 6,
                    "target" : {
                        "node" : 6,
                        "path" : "translation"
                    }
                },
                {
                    "sampler" : 7,
                    "target" : {
                        "node" : 6,
                        "path" : "rotation"
                    }
                },
                {
                    "sampler" : 8,
                    "target" : {
                        "node" : 6,
                        "path" : "scale"
                    }
                }
            ],
            "name" : "ArmatureAction",
            "samplers" : [
                {
                    "input" : 18,
                    "interpolation" : "LINEAR",
                    "output" : 19
                },
                {
                    "input" : 18,
                    "interpolation" : "LINEAR",
                    "output" : 20
                },
                {
                    "input" : 18,
                    "interpolation" : "LINEAR",
                    "output" : 21
                },
                {
                    "input" : 18,
                    "interpolation" : "LINEAR",
                    "output" : 22
                },
                {
                    "input" : 18,
                    "interpolation" : "LINEAR",
                    "output" : 23
                },
                {
                    "input" : 18,
                    "interpolation" : "LINEAR",
                    "output" : 24
                },
                {
                    "input" : 18,
                    "interpolation" : "LINEAR",
                    "output" : 25
                },
                {
                    "input" : 18,
                    "interpolation" : "LINEAR",
                    "output" : 26
                },
                {
                    "input" : 18,
                    "interpolation" : "LINEAR",
                    "output" : 27
                }
            ]
        }
    ],
    "meshes" : [
        {
            "name" : "Cylinder",
            "primitives" : [
                {
                    "attributes" : {
                        "POSITION" : 0,
                        "NORMAL" : 1,
                        "TEXCOORD_0" : 2
                    },
                    "indices" : 3
                }
            ]
        },
        {
            "name" : "Cylinder.001",
            "primitives" : [
                {
                    "attributes" : {
                        "POSITION" : 4,
                        "NORMAL" : 5,
                        "TEXCOORD_0" : 6
                    },
                    "indices" : 7
                }
            ]
        },
        {
            "name" : "Cylinder.002",
            "primitives" : [
                {
                    "attributes" : {
                        "POSITION" : 8,
                        "NORMAL" : 9,
                        "TEXCOORD_0" : 10
                    },
                    "indices" : 11
                }
            ]
        },
        {
            "name" : "Cylinder.003",
            "primitives" : [
                {
                    "attributes" : {
                        "POSITION" : 12,
                        "NORMAL" : 13,
                        "TEXCOORD_0" : 14
                    },
                    "indices" : 15
                }
            ]
        }
    ],
    "accessors" : [
        {
            "bufferView" : 0,
            "componentType" : 5126,
            "count" : 13102,
            "max" : [
                1,
                1.25,
                1
            ],
            "min" : [
                -1,
                -0.7610539197921753,
                -1
            ],
            "type" : "VEC3"
        },
        {
            "bufferView" : 1,
            "componentType" : 5126,
            "count" : 13102,
            "type" : "VEC3"
        },
        {
            "bufferView" : 2,
            "componentType" : 5126,
            "count" : 13102,
            "type" : "VEC2"
        },
        {
            "bufferView" : 3,
            "componentType" : 5123,
            "count" : 21504,
            "type" : "SCALAR"
        },
        {
            "bufferView" : 4,
            "componentType" : 5126,
            "count" : 840,
            "max" : [
                1,
                1.25,
                1
            ],
            "min" : [
                -1,
                0.8687499761581421,
                -1
            ],
            "type" : "VEC3"
        },
        {
            "bufferView" : 5,
            "componentType" : 5126,
            "count" : 840,
            "type" : "VEC3"
        },
        {
            "bufferView" : 6,
            "componentType" : 5126,
            "count" : 840,
            "type" : "VEC2"
        },
        {
            "bufferView" : 7,
            "componentType" : 5123,
            "count" : 1536,
            "type" : "SCALAR"
        },
        {
            "bufferView" : 8,
            "componentType" : 5126,
            "count" : 856,
            "max" : [
                1,
                0.6000000238418579,
                1
            ],
            "min" : [
                -1,
                0.3687500059604645,
                -1
            ],
            "type" : "VEC3"
        },
        {
            "bufferView" : 9,
            "componentType" : 5126,
            "count" : 856,
            "type" : "VEC3"
        },
        {
            "bufferView" : 10,
            "componentType" : 5126,
            "count" : 856,
            "type" : "VEC2"
        },
        {
            "bufferView" : 11,
            "componentType" : 5123,
            "count" : 1536,
            "type" : "SCALAR"
        },
        {
            "bufferView" : 12,
            "componentType" : 5126,
            "count" : 858,
            "max" : [
                1,
                0.09999999403953552,
                1
            ],
            "min" : [
                -1,
                -0.13124999403953552,
                -1
            ],
            "type" : "VEC3"
        },
        {
            "bufferView" : 13,
            "componentType" : 5126,
            "count" : 858,
            "type" : "VEC3"
        },
        {
            "bufferView" : 14,
            "componentType" : 5126,
            "count" : 858,
            "type" : "VEC2"
        },
        {
            "bufferView" : 15,
            "componentType" : 5123,
            "count" : 1536,
            "type" : "SCALAR"
        },
        {
            "bufferView" : 16,
            "componentType" : 5126,
            "count" : 14,
            "max" : [
                2.9166666666666665
            ],
            "min" : [
                2.375
            ],
            "type" : "SCALAR"
        },
        {
            "bufferView" : 17,
            "componentType" : 5126,
            "count" : 14,
            "type" : "VEC3"
        },
        {
            "bufferView" : 18,
            "componentType" : 5126,
            "count" : 186,
            "max" : [
                9.833333333333334
            ],
            "min" : [
                2.125
            ],
            "type" : "SCALAR"
        },
        {
            "bufferView" : 19,
            "componentType" : 5126,
            "count" : 186,
            "type" : "VEC3"
        },
        {
            "bufferView" : 20,
            "componentType" : 5126,
            "count" : 186,
            "type" : "VEC4"
        },
        {
            "bufferView" : 21,
            "componentType" : 5126,
            "count" : 186,
            "type" : "VEC3"
        },
        {
            "bufferView" : 22,
            "componentType" : 5126,
            "count" : 186,
            "type" : "VEC3"
        },
        {
            "bufferView" : 23,
            "componentType" : 5126,
            "count" : 186,
            "type" : "VEC4"
        },
        {
            "bufferView" : 24,
            "componentType" : 5126,
            "count" : 186,
            "type" : "VEC3"
        },
        {
            "bufferView" : 25,
            "componentType" : 5126,
            "count" : 186,
            "type" : "VEC3"
        },
        {
            "bufferView" : 26,
            "componentType" : 5126,
            "count" : 186,
            "type" : "VEC4"
        },
        {
            "bufferView" : 27,
            "componentType" : 5126,
            "count" : 186,
            "type" : "VEC3"
        }
    ],
    "bufferViews" : [
        {
            "buffer" : 0,
            "byteLength" : 157224,
            "byteOffset" : 0
        },
        {
            "buffer" : 0,
            "byteLength" : 157224,
            "byteOffset" : 157224
        },
        {
            "buffer" : 0,
            "byteLength" : 104816,
            "byteOffset" : 314448
        },
        {
            "buffer" : 0,
            "byteLength" : 43008,
            "byteOffset" : 419264
        },
        {
            "buffer" : 0,
            "byteLength" : 10080,
            "byteOffset" : 462272
        },
        {
            "buffer" : 0,
            "byteLength" : 10080,
            "byteOffset" : 472352
        },
        {
            "buffer" : 0,
            "byteLength" : 6720,
            "byteOffset" : 482432
        },
        {
            "buffer" : 0,
            "byteLength" : 3072,
            "byteOffset" : 489152
        },
        {
            "buffer" : 0,
            "byteLength" : 10272,
            "byteOffset" : 492224
        },
        {
            "buffer" : 0,
            "byteLength" : 10272,
            "byteOffset" : 502496
        },
        {
            "buffer" : 0,
            "byteLength" : 6848,
            "byteOffset" : 512768
        },
        {
            "buffer" : 0,
            "byteLength" : 3072,
            "byteOffset" : 519616
        },
        {
            "buffer" : 0,
            "byteLength" : 10296,
            "byteOffset" : 522688
        },
        {
            "buffer" : 0,
            "byteLength" : 10296,
            "byteOffset" : 532984
        },
        {
            "buffer" : 0,
            "byteLength" : 6864,
            "byteOffset" : 543280
        },
        {
            "buffer" : 0,
            "byteLength" : 3072,
            "byteOffset" : 550144
        },
        {
            "buffer" : 0,
            "byteLength" : 56,
            "byteOffset" : 553216
        },
        {
            "buffer" : 0,
            "byteLength" : 168,
            "byteOffset" : 553272
        },
        {
            "buffer" : 0,
            "byteLength" : 744,
            "byteOffset" : 553440
        },
        {
            "buffer" : 0,
            "byteLength" : 2232,
            "byteOffset" : 554184
        },
        {
            "buffer" : 0,
            "byteLength" : 2976,
            "byteOffset" : 556416
        },
        {
            "buffer" : 0,
            "byteLength" : 2232,
            "byteOffset" : 559392
        },
        {
            "buffer" : 0,
            "byteLength" : 2232,
            "byteOffset" : 561624
        },
        {
            "buffer" : 0,
            "byteLength" : 2976,
            "byteOffset" : 563856
        },
        {
            "buffer" : 0,
            "byteLength" : 2232,
            "byteOffset" : 566832
        },
        {
            "buffer" : 0,
            "byteLength" : 2232,
            "byteOffset" : 569064
        },
        {
            "buffer" : 0,
            "byteLength" : 2976,
            "byteOffset" : 571296
        },
        {
            "buffer" : 0,
            "byteLength" : 2232,
            "byteOffset" : 574272
        }
    ],
    "buffers" : [
        {
            "byteLength" : 576504,
            "uri" : "data:application/octet-stream;base64,"
        }
    ]
}
